# xmcd
#
# Track frame offsets:
#	150
#	18915
#	36185
#	52943
#	72418
#	89255
#	105705
#	123825
#	143040
#	159535
#	176065
#	194448
#	213703
#	232718
#	255558
#	274880
#	292378
#	312290
#
# Disc length: 4431 seconds
#
# Revision: 0
# Processed by: cddbd v1.5.2PL0 Copyright (c) Steve Scherf et al.
# Submitted via: EZCDAudioConverter 1.2.3.1
#
DISCID=08114d12
DTITLE=Various Artist - Simply the best [import 1991]
DYEAR=1991
DGENRE=R&B
TTITLE0=Tina turner - The best
TTITLE1=Tina turner - What's love got to do with it
TTITLE2=Tina turner - I can't stand the rain
TTITLE3=Tina turner - I don't wanna lose you
TTITLE4=Tina turner - Nutbush city limits
TTITLE5=Tina turner - Let's stay together
TTITLE6=Tina turner - Private dancer
TTITLE7=Tina turner - We don't need another hero
TTITLE8=Tina turner - Better be good to me
TTITLE9=Tina turner - River deep - mountain high
TTITLE10=Tina turner - Steamy windows
TTITLE11=Tina turner - Typical male
TTITLE12=Rod stewart/tina turner - It takes two
TTITLE13=Tina turner - Addicted to love
TTITLE14=Tina turner - Be tender with me baby
TTITLE15=Tina turner - I want you near me
TTITLE16=Tina turner - Way of the world
TTITLE17=Tina turner - Love thing
EXTD=
EXTT0=
EXTT1=
EXTT2=
EXTT3=
EXTT4=
EXTT5=
EXTT6=
EXTT7=
EXTT8=
EXTT9=
EXTT10=
EXTT11=
EXTT12=
EXTT13=
EXTT14=
EXTT15=
EXTT16=
EXTT17=
PLAYORDER=
